# xmcd
#
# Track frame offsets:
#	150
#	17567
#	34635
#	50305
#	66955
#	84050
#	101180
#	116717
#	131500
#	149925
#	166489
#	183641
#	200846
#
# Disc length: 2975 seconds
#
# Revision: 9
# Processed by: cddbd v1.5.2PL0 Copyright (c) Steve Scherf et al.
# Submitted via: audiograbber 1.83.01
#
DISCID=be0b9d0d
DTITLE=Ne-Yo - In My Own Words
DYEAR=2006
DGENRE=R&B
TTITLE0=Ne-Yo, Peedi Peedi - Stay
TTITLE1=Ne-Yo - Let Me Get This Right
TTITLE2=Ne-Yo - So Sick
TTITLE3=Ne-Yo - When You're Mad
TTITLE4=Ne-Yo - It Just Ain't Right
TTITLE5=Ne-Yo - Mirror
TTITLE6=Ne-Yo - Sign Me Up
TTITLE7=Ne-Yo - I Ain't Gotta Tell You
TTITLE8=Ne-Yo - Get Down Like That
TTITLE9=Ne-Yo - Sexy Love
TTITLE10=Ne-Yo - Let Go
TTITLE11=Ne-Yo - Time
TTITLE12=Ne-Yo, Ghostface Killah - Untitled Track
EXTD=www.RapMusicGuide.com\n
EXTT0=
EXTT1=
EXTT2=
EXTT3=
EXTT4=
EXTT5=
EXTT6=
EXTT7=
EXTT8=
EXTT9=
EXTT10=
EXTT11=
EXTT12=
PLAYORDER=
